<svg width="34" height="34" viewBox="0 0 34 34" fill="none" xmlns="http://www.w3.org/2000/svg">
<circle cx="17" cy="17" r="15.5" stroke="#BE9C00" stroke-width="3"/>
<path d="M18 6.23334C18 5.68105 17.5523 5.23334 17 5.23334C16.4477 5.23334 16 5.68105 16 6.23334H18ZM16 6.23334V15.8667H18V6.23334H16Z" fill="#BE9C00"/>
<path d="M27.7667 18C28.3189 18 28.7667 17.5523 28.7667 17C28.7667 16.4477 28.3189 16 27.7667 16L27.7667 18ZM27.7667 16L18.1333 16L18.1333 18L27.7667 18L27.7667 16Z" fill="#BE9C00"/>
<path d="M18.2 17C18.2 17.6627 17.6627 18.2 17 18.2C16.3373 18.2 15.8 17.6627 15.8 17C15.8 16.3372 16.3373 15.8 17 15.8C17.6627 15.8 18.2 16.3372 18.2 17Z" fill="#BE9C00" stroke="#BE9C00"/>
</svg>
